<svg width="28" height="28" viewBox="0 0 28 28" fill="none" xmlns="http://www.w3.org/2000/svg">
<path d="M0.141846 5.14185C0.141846 2.38043 2.38042 0.141846 5.14185 0.141846H27.3657C27.6418 0.141846 27.8657 0.365703 27.8657 0.641846V27.3618C27.8657 27.638 27.6418 27.8618 27.3657 27.8618H0.641847C0.365704 27.8618 0.141846 27.638 0.141846 27.3618V5.14185Z" fill="#61D47B"/>
<path d="M0.141846 5.14185C0.141846 2.38043 2.38042 0.141846 5.14185 0.141846H27.3657C27.6418 0.141846 27.8657 0.365703 27.8657 0.641846V27.3618C27.8657 27.638 27.6418 27.8618 27.3657 27.8618H0.641847C0.365704 27.8618 0.141846 27.638 0.141846 27.3618V5.14185Z" fill="url(#paint0_linear_3509_14)" fill-opacity="0.9"/>
<g clip-path="url(#clip0_3509_14)">
<path d="M4.69001 15.3311L6.05301 15.6691L7.07901 14.0581L5.12901 13.5761C4.89629 13.5179 4.64996 13.5545 4.44424 13.6779C4.23851 13.8013 4.09023 14.0014 4.03201 14.2341C3.9738 14.4668 4.01042 14.7132 4.13382 14.9189C4.25722 15.1246 4.45729 15.2729 4.69001 15.3311ZM22.481 15.5921L18.018 19.6081L12.771 15.5471C12.671 15.47 12.5558 15.4148 12.433 15.3851L11.735 15.2111L10.708 16.8221L11.808 17.0951L17.505 21.5031C17.6742 21.6333 17.8835 21.7003 18.0968 21.6924C18.3101 21.6845 18.5139 21.6024 18.673 21.4601L23.701 16.9331C23.7895 16.8538 23.8615 16.7577 23.9127 16.6504C23.9638 16.5431 23.9932 16.4267 23.9992 16.3079C24.0052 16.1892 23.9875 16.0705 23.9473 15.9586C23.9071 15.8467 23.8452 15.7439 23.765 15.6561C23.6031 15.4776 23.377 15.3706 23.1362 15.3586C22.8955 15.3466 22.6599 15.4306 22.481 15.5921ZM12.684 11.1801L17.571 14.3091C17.7695 14.436 18.0094 14.4813 18.2405 14.4354C18.4716 14.3896 18.676 14.2562 18.811 14.0631L23.838 6.82111C23.9063 6.72347 23.9546 6.61323 23.98 6.4968C24.0053 6.38036 24.0073 6.26004 23.9859 6.14283C23.9644 6.02561 23.9198 5.91383 23.8548 5.81397C23.7897 5.71411 23.7055 5.62816 23.607 5.56111C23.4087 5.42408 23.1641 5.37134 22.9269 5.41446C22.6898 5.45758 22.4794 5.59304 22.342 5.79111L17.814 12.3121L12.898 9.16511C12.6938 9.0352 12.4466 8.99101 12.21 9.04211C12.093 9.06746 11.9823 9.11589 11.8842 9.18457C11.7862 9.25326 11.7028 9.34081 11.639 9.44211L4.14201 21.2091C4.0541 21.346 4.00479 21.504 3.9993 21.6666C3.9938 21.8292 4.03232 21.9902 4.11078 22.1327C4.18925 22.2752 4.30475 22.3939 4.44508 22.4761C4.58541 22.5584 4.74535 22.6012 4.90801 22.6001C5.06101 22.6003 5.21159 22.5619 5.34583 22.4885C5.48007 22.4151 5.59363 22.309 5.67601 22.1801L12.684 11.1801Z" fill="#011314"/>
</g>
<defs>
<linearGradient id="paint0_linear_3509_14" x1="0.000903952" y1="13.8417" x2="27.9994" y2="14.1297" gradientUnits="userSpaceOnUse">
<stop stop-color="#B8F966"/>
<stop offset="1" stop-color="#61D47B"/>
</linearGradient>
<clipPath id="clip0_3509_14">
<rect width="20" height="20" fill="white" transform="translate(4 4.00012)"/>
</clipPath>
</defs>
</svg>
